<?xml version="1.0" encoding="utf-8"?>
<!-- Generator: Adobe Illustrator 26.1.0, SVG Export Plug-In . SVG Version: 6.00 Build 0)  -->
<svg version="1.1" id="_x30_" xmlns="http://www.w3.org/2000/svg" xmlns:xlink="http://www.w3.org/1999/xlink" x="0px" y="0px"
	 viewBox="0 0 90 61.36" style="enable-background:new 0 0 90 61.36;" xml:space="preserve">
<style type="text/css">
	
		.st0{fill:none;stroke:#939598;stroke-width:2.7615;stroke-linecap:round;stroke-linejoin:round;stroke-miterlimit:10;stroke-dasharray:49.4887,9.8977,9.8977,9.8977;}
	.st1{fill:none;stroke:#000000;stroke-width:15;stroke-linecap:round;stroke-linejoin:round;stroke-miterlimit:10;}
	.st2{fill:#231F20;}
	
		.st3{fill:none;stroke:#231F20;stroke-width:2.9459;stroke-linecap:round;stroke-linejoin:round;stroke-miterlimit:10;stroke-dasharray:52.7938,10.5588,10.5588,10.5588;}
</style>
<g>
	<path class="st2" d="M63.83,40.91L85.91,0L53.62,23.07c0.02,0.02,0.04,0.04,0.07,0.06c0.11,0.11,0.12,0.29,0.01,0.4
		c-0.06,0.06-0.13,0.09-0.2,0.09c-0.07,0-0.14-0.03-0.19-0.08c-0.05-0.05-0.1-0.09-0.15-0.14L21.93,45.7
		c0.47,1.05,1.03,2.07,1.68,3.03l31.86-22.76c-0.26-0.34-0.52-0.67-0.8-1c-0.1-0.12-0.09-0.3,0.03-0.4c0.12-0.1,0.3-0.09,0.4,0.03
		c0.29,0.33,0.57,0.68,0.83,1.04l19.9-14.22L60.8,39.27l-1.16,2.15c-0.03,0.17-0.07,0.34-0.1,0.5l2.17,1.7l18.3,14.3H10.74
		l12.41-8.87c-0.65-0.96-1.22-1.97-1.69-3.02L0,61.36h90L63.83,40.91z"/>
	<path class="st2" d="M44.82,18.23c-0.15-0.04-0.3,0.05-0.34,0.2c-0.04,0.15,0.05,0.3,0.2,0.34c3.15,0.8,6.07,2.4,8.46,4.62
		l0.47-0.33C51.14,20.74,48.1,19.07,44.82,18.23z"/>
	<path class="st2" d="M19.96,38.17C19.96,38.17,19.96,38.17,19.96,38.17c0.16,0,0.28-0.13,0.28-0.28l0-0.13
		c0-0.62,0.03-1.24,0.09-1.85c0.01-0.15-0.1-0.29-0.25-0.31c-0.15-0.01-0.29,0.1-0.31,0.25c-0.06,0.63-0.09,1.27-0.09,1.91l0,0.14
		C19.68,38.05,19.81,38.17,19.96,38.17z"/>
	<path class="st2" d="M20.28,34.16c0.02,0,0.04,0.01,0.05,0.01c0.13,0,0.25-0.09,0.28-0.23c0.64-3.25,2.12-6.32,4.28-8.86
		c0.1-0.12,0.09-0.3-0.03-0.4c-0.12-0.1-0.3-0.09-0.4,0.03c-2.22,2.61-3.75,5.76-4.41,9.11C20.03,33.98,20.13,34.13,20.28,34.16z"/>
	<path class="st2" d="M20.36,39.87c-0.02-0.15-0.15-0.27-0.31-0.25c-0.15,0.02-0.27,0.16-0.25,0.31c0.23,2.11,0.79,4.17,1.66,6.1
		l0.47-0.33C21.11,43.86,20.57,41.89,20.36,39.87z"/>
	<path class="st2" d="M29.24,21.22c0.05,0,0.1-0.01,0.15-0.04c2.81-1.77,6.05-2.8,9.38-2.98c0.16-0.01,0.27-0.14,0.27-0.3
		c-0.01-0.16-0.14-0.28-0.3-0.27c-3.42,0.18-6.76,1.24-9.65,3.07c-0.13,0.08-0.17,0.26-0.09,0.39
		C29.05,21.18,29.15,21.22,29.24,21.22z"/>
	<path class="st2" d="M40.75,18.19c0.66,0.03,1.33,0.1,1.98,0.19c0.01,0,0.03,0,0.04,0c0.14,0,0.26-0.1,0.28-0.24
		c0.02-0.15-0.08-0.3-0.24-0.32c-0.67-0.1-1.36-0.17-2.04-0.2c-0.16-0.01-0.29,0.11-0.29,0.27C40.48,18.05,40.6,18.19,40.75,18.19z"
		/>
	<path class="st2" d="M59.64,39.22c-0.16-0.01-0.29,0.1-0.31,0.26c-0.29,3.31-1.43,6.52-3.3,9.27c-0.09,0.13-0.05,0.3,0.07,0.39
		c0.05,0.03,0.1,0.05,0.16,0.05c0.09,0,0.18-0.04,0.23-0.12c1.47-2.16,2.5-4.59,3.03-7.14l-0.12-0.09l0.22-0.41
		c0.12-0.63,0.2-1.26,0.26-1.9C59.91,39.37,59.8,39.23,59.64,39.22z"/>
	<path class="st2" d="M26.07,23.71c0.07,0,0.14-0.03,0.2-0.08c0.48-0.46,0.98-0.9,1.5-1.3c0.12-0.1,0.14-0.27,0.05-0.4
		c-0.1-0.12-0.27-0.14-0.4-0.05c-0.54,0.42-1.06,0.87-1.54,1.34c-0.11,0.11-0.12,0.29-0.01,0.4C25.92,23.68,25.99,23.71,26.07,23.71
		z"/>
	<path class="st2" d="M27.63,53.8c2.73,2.08,5.96,3.43,9.34,3.91c0.01,0,0.03,0,0.04,0c0.14,0,0.26-0.1,0.28-0.24
		c0.02-0.15-0.09-0.3-0.24-0.32c-3.29-0.47-6.43-1.78-9.08-3.8c-0.12-0.09-0.3-0.07-0.39,0.05C27.49,53.53,27.51,53.7,27.63,53.8z"
		/>
	<path class="st2" d="M39.01,57.89c0.27,0.01,0.54,0.02,0.8,0.02c0,0,0.01,0,0.01,0c0.41,0,0.82-0.01,1.23-0.04
		c0.16-0.01,0.27-0.14,0.26-0.3c-0.01-0.16-0.14-0.27-0.3-0.26c-0.39,0.02-0.8,0.04-1.19,0.04c-0.27,0-0.53-0.01-0.79-0.02
		c-0.15-0.01-0.29,0.11-0.29,0.27C38.73,57.75,38.85,57.88,39.01,57.89z"/>
	<path class="st2" d="M56.12,26.67c0.06,0,0.11-0.02,0.16-0.05c0.13-0.09,0.16-0.26,0.07-0.39c-0.14-0.2-0.28-0.39-0.42-0.58
		l-0.46,0.33c0.14,0.19,0.28,0.38,0.42,0.57C55.94,26.62,56.03,26.67,56.12,26.67z"/>
	<path class="st2" d="M43.04,57.64c0.02,0,0.03,0,0.05,0c3.37-0.55,6.57-1.97,9.26-4.1c0.12-0.1,0.14-0.27,0.05-0.4
		c-0.1-0.12-0.27-0.14-0.4-0.05c-2.61,2.07-5.72,3.45-9,3.98c-0.15,0.03-0.26,0.17-0.23,0.32C42.79,57.55,42.91,57.64,43.04,57.64z"
		/>
	<path class="st2" d="M26.07,52.48c0.05,0.05,0.12,0.08,0.19,0.08c0.08,0,0.15-0.03,0.21-0.09c0.11-0.11,0.1-0.29-0.01-0.4
		c-0.48-0.45-0.95-0.93-1.38-1.43c-0.1-0.12-0.28-0.13-0.4-0.03c-0.12,0.1-0.13,0.28-0.03,0.4C25.1,51.52,25.58,52.01,26.07,52.48z"
		/>
	<path class="st2" d="M23.38,49.4c0.05,0.08,0.14,0.12,0.23,0.12c0.06,0,0.11-0.02,0.16-0.05c0.13-0.09,0.16-0.27,0.07-0.39
		c-0.08-0.11-0.16-0.23-0.24-0.34l-0.46,0.33C23.23,49.17,23.3,49.29,23.38,49.4z"/>
	<path class="st2" d="M53.68,52.27c0.07,0,0.14-0.03,0.2-0.08c0.49-0.47,0.95-0.98,1.39-1.5c0.1-0.12,0.08-0.3-0.03-0.4
		c-0.12-0.1-0.3-0.08-0.4,0.03c-0.42,0.51-0.88,1-1.35,1.46c-0.11,0.11-0.11,0.29-0.01,0.4C53.54,52.24,53.61,52.27,53.68,52.27z"/>
	<path class="st2" d="M59.41,37.76c0,0.16,0.13,0.28,0.28,0.28c0.16,0,0.28-0.13,0.28-0.28c0-3.43-0.88-6.82-2.54-9.8
		c-0.08-0.14-0.25-0.18-0.38-0.11c-0.14,0.08-0.18,0.25-0.11,0.38C58.56,31.13,59.41,34.42,59.41,37.76z"/>
</g>
</svg>
